# xmcd
#
# Track frame offsets:
#	150
#	20436
#	32228
#
# Disc length: 678 seconds
#
# Revision: 0
# Processed by: cddbd v1.5.2PL0 Copyright (c) Steve Scherf et al.
# Submitted via: audiograbber 1.83.01
#
DISCID=1c02a403
DTITLE=Maria Parma - Prière
DYEAR=2008
DGENRE=Religieux
TTITLE0=Prière
TTITLE1=L'amour t'enchaine
TTITLE2=Histoire d'un petit garçon
EXTD=http://www.natadom.net/natalino/parma/depar.html
EXTT0=ISRCBEE360800015
EXTT1=ISRCBEE360800016
EXTT2=ISRCBEE360800017
PLAYORDER=
